<mxfile host="Electron" modified="2023-10-13T08:56:08.029Z" agent="Mozilla/5.0 (Windows NT 10.0; Win64; x64) AppleWebKit/537.36 (KHTML, like Gecko) draw.io/22.0.2 Chrome/114.0.5735.289 Electron/25.8.4 Safari/537.36" etag="Qh-bZvzfSpgKdbdO31gt" version="22.0.2" type="device">
  <diagram id="prtHgNgQTEPvFCAcTncT" name="Page-1">
    <mxGraphModel dx="2904" dy="2364" grid="1" gridSize="10" guides="1" tooltips="1" connect="1" arrows="1" fold="1" page="1" pageScale="1" pageWidth="827" pageHeight="1169" math="0" shadow="0">
      <root>
        <mxCell id="0" />
        <mxCell id="1" parent="0" />
        <mxCell id="dNxyNK7c78bLwvsdeMH5-19" value="CarInsurance Determination Flow" style="swimlane;html=1;childLayout=stackLayout;resizeParent=1;resizeParentMax=0;horizontal=0;startSize=20;horizontalStack=0;" parent="1" vertex="1">
          <mxGeometry x="20" y="120" width="1250" height="935" as="geometry" />
        </mxCell>
        <mxCell id="dNxyNK7c78bLwvsdeMH5-20" value="Team Pink" style="swimlane;html=1;startSize=20;horizontal=0;" parent="dNxyNK7c78bLwvsdeMH5-19" vertex="1">
          <mxGeometry x="20" width="1230" height="370" as="geometry" />
        </mxCell>
        <mxCell id="dNxyNK7c78bLwvsdeMH5-23" value="New Case" style="ellipse;whiteSpace=wrap;html=1;fillColor=#d5e8d4;strokeColor=#82b366;" parent="dNxyNK7c78bLwvsdeMH5-20" vertex="1">
          <mxGeometry x="40" y="75" width="40" height="40" as="geometry" />
        </mxCell>
        <mxCell id="dNxyNK7c78bLwvsdeMH5-24" value="Application Case Liability And Prosecution" style="rounded=0;whiteSpace=wrap;html=1;fontFamily=Helvetica;fontSize=12;fontColor=#000000;align=left;verticalAlign=top;" parent="dNxyNK7c78bLwvsdeMH5-20" vertex="1">
          <mxGeometry x="120" y="40" width="940" height="210" as="geometry" />
        </mxCell>
        <mxCell id="JLahKmmvktKveG1mE4vH-2" value="Validate input" style="shape=parallelogram;perimeter=parallelogramPerimeter;whiteSpace=wrap;html=1;fixedSize=1;fillColor=#60a917;fontColor=#ffffff;strokeColor=#2D7600;" parent="dNxyNK7c78bLwvsdeMH5-20" vertex="1">
          <mxGeometry x="130" y="65" width="120" height="60" as="geometry" />
        </mxCell>
        <mxCell id="JLahKmmvktKveG1mE4vH-9" style="edgeStyle=orthogonalEdgeStyle;rounded=0;orthogonalLoop=1;jettySize=auto;html=1;exitX=1;exitY=0.5;exitDx=0;exitDy=0;entryX=0;entryY=0.5;entryDx=0;entryDy=0;strokeWidth=4;fillColor=#60a917;strokeColor=#2D7600;" parent="dNxyNK7c78bLwvsdeMH5-20" source="JLahKmmvktKveG1mE4vH-3" target="JLahKmmvktKveG1mE4vH-8" edge="1">
          <mxGeometry relative="1" as="geometry" />
        </mxCell>
        <mxCell id="JLahKmmvktKveG1mE4vH-3" value="Retrieve Car &lt;br&gt;data" style="shape=parallelogram;perimeter=parallelogramPerimeter;whiteSpace=wrap;html=1;fixedSize=1;fillColor=#60a917;fontColor=#ffffff;strokeColor=#2D7600;" parent="dNxyNK7c78bLwvsdeMH5-20" vertex="1">
          <mxGeometry x="230" y="65" width="120" height="60" as="geometry" />
        </mxCell>
        <mxCell id="JLahKmmvktKveG1mE4vH-19" value="" style="edgeStyle=orthogonalEdgeStyle;rounded=0;orthogonalLoop=1;jettySize=auto;html=1;entryX=0;entryY=0.5;entryDx=0;entryDy=0;fillColor=#60a917;strokeColor=#2D7600;strokeWidth=4;" parent="dNxyNK7c78bLwvsdeMH5-20" source="JLahKmmvktKveG1mE4vH-8" target="JLahKmmvktKveG1mE4vH-21" edge="1">
          <mxGeometry relative="1" as="geometry">
            <mxPoint x="483" y="95" as="targetPoint" />
          </mxGeometry>
        </mxCell>
        <mxCell id="JLahKmmvktKveG1mE4vH-20" value="valid &lt;br&gt;car data&lt;br&gt;" style="edgeLabel;html=1;align=center;verticalAlign=middle;resizable=0;points=[];" parent="JLahKmmvktKveG1mE4vH-19" vertex="1" connectable="0">
          <mxGeometry x="0.08" y="-1" relative="1" as="geometry">
            <mxPoint as="offset" />
          </mxGeometry>
        </mxCell>
        <mxCell id="JLahKmmvktKveG1mE4vH-8" value="" style="rhombus;whiteSpace=wrap;html=1;fillColor=#d5e8d4;strokeColor=#82b366;" parent="dNxyNK7c78bLwvsdeMH5-20" vertex="1">
          <mxGeometry x="374" y="75" width="44" height="40" as="geometry" />
        </mxCell>
        <mxCell id="JLahKmmvktKveG1mE4vH-24" value="" style="edgeStyle=orthogonalEdgeStyle;rounded=0;orthogonalLoop=1;jettySize=auto;html=1;fillColor=#60a917;strokeColor=#2D7600;strokeWidth=4;" parent="dNxyNK7c78bLwvsdeMH5-20" source="JLahKmmvktKveG1mE4vH-21" target="JLahKmmvktKveG1mE4vH-23" edge="1">
          <mxGeometry relative="1" as="geometry" />
        </mxCell>
        <mxCell id="JLahKmmvktKveG1mE4vH-21" value="determine &lt;br&gt;severity" style="shape=parallelogram;perimeter=parallelogramPerimeter;whiteSpace=wrap;html=1;fixedSize=1;fillColor=#60a917;fontColor=#ffffff;strokeColor=#2D7600;" parent="dNxyNK7c78bLwvsdeMH5-20" vertex="1">
          <mxGeometry x="480" y="65" width="120" height="60" as="geometry" />
        </mxCell>
        <mxCell id="JLahKmmvktKveG1mE4vH-23" value="" style="rhombus;whiteSpace=wrap;html=1;fillColor=#d5e8d4;strokeColor=#82b366;" parent="dNxyNK7c78bLwvsdeMH5-20" vertex="1">
          <mxGeometry x="630" y="75" width="44" height="40" as="geometry" />
        </mxCell>
        <mxCell id="JLahKmmvktKveG1mE4vH-65" value="prepare data for execution follow up" style="shape=parallelogram;perimeter=parallelogramPerimeter;whiteSpace=wrap;html=1;fixedSize=1;fillColor=#60a917;fontColor=#ffffff;strokeColor=#2D7600;" parent="dNxyNK7c78bLwvsdeMH5-20" vertex="1">
          <mxGeometry x="880" y="155" width="140" height="60" as="geometry" />
        </mxCell>
        <mxCell id="odWeHe8WMvh3HsmHUbko-1" value="Update case data on car owner&amp;nbsp;" style="shape=parallelogram;perimeter=parallelogramPerimeter;whiteSpace=wrap;html=1;fixedSize=1;fillColor=#60a917;fontColor=#ffffff;strokeColor=#2D7600;" parent="dNxyNK7c78bLwvsdeMH5-20" vertex="1">
          <mxGeometry x="550" y="155" width="158" height="60" as="geometry" />
        </mxCell>
        <mxCell id="odWeHe8WMvh3HsmHUbko-3" value="&lt;b&gt;&lt;font color=&quot;#0008ff&quot; style=&quot;font-size: 15px;&quot;&gt;CLAP&lt;/font&gt;&lt;/b&gt;" style="text;html=1;strokeColor=none;fillColor=none;align=center;verticalAlign=middle;whiteSpace=wrap;rounded=0;" parent="dNxyNK7c78bLwvsdeMH5-20" vertex="1">
          <mxGeometry x="110" y="14" width="60" height="30" as="geometry" />
        </mxCell>
        <mxCell id="JLahKmmvktKveG1mE4vH-11" value="" style="edgeStyle=orthogonalEdgeStyle;rounded=0;orthogonalLoop=1;jettySize=auto;html=1;strokeWidth=4;fillColor=#60a917;strokeColor=#2D7600;" parent="dNxyNK7c78bLwvsdeMH5-20" source="dNxyNK7c78bLwvsdeMH5-23" target="JLahKmmvktKveG1mE4vH-2" edge="1">
          <mxGeometry relative="1" as="geometry" />
        </mxCell>
        <mxCell id="3Uh9chhcTV54EPIA5pE7-5" value="" style="shape=flexArrow;endArrow=classic;html=1;rounded=0;fillColor=#1ba1e2;strokeColor=#006EAF;labelBackgroundColor=none;endWidth=24;endSize=8;width=22;" edge="1" parent="dNxyNK7c78bLwvsdeMH5-20">
          <mxGeometry width="50" height="50" relative="1" as="geometry">
            <mxPoint x="410" y="60" as="sourcePoint" />
            <mxPoint x="460" y="60" as="targetPoint" />
          </mxGeometry>
        </mxCell>
        <mxCell id="3Uh9chhcTV54EPIA5pE7-6" value="&lt;font style=&quot;font-size: 23px;&quot;&gt;2&lt;/font&gt;" style="edgeLabel;html=1;align=center;verticalAlign=middle;resizable=0;points=[];labelBackgroundColor=none;fontColor=#FFFFFF;" vertex="1" connectable="0" parent="3Uh9chhcTV54EPIA5pE7-5">
          <mxGeometry x="-0.3714" y="-4" relative="1" as="geometry">
            <mxPoint x="7" y="-4" as="offset" />
          </mxGeometry>
        </mxCell>
        <mxCell id="3Uh9chhcTV54EPIA5pE7-11" value="" style="shape=flexArrow;endArrow=classic;html=1;rounded=0;fillColor=#1ba1e2;strokeColor=#006EAF;labelBackgroundColor=none;endWidth=24;endSize=8;width=22;" edge="1" parent="dNxyNK7c78bLwvsdeMH5-20">
          <mxGeometry width="50" height="50" relative="1" as="geometry">
            <mxPoint x="380" y="125" as="sourcePoint" />
            <mxPoint x="380" y="175" as="targetPoint" />
          </mxGeometry>
        </mxCell>
        <mxCell id="3Uh9chhcTV54EPIA5pE7-12" value="&lt;font style=&quot;font-size: 23px;&quot;&gt;1&lt;/font&gt;" style="edgeLabel;html=1;align=center;verticalAlign=middle;resizable=0;points=[];labelBackgroundColor=none;fontColor=#FFFFFF;" vertex="1" connectable="0" parent="3Uh9chhcTV54EPIA5pE7-11">
          <mxGeometry x="-0.3714" y="-4" relative="1" as="geometry">
            <mxPoint x="4" y="8" as="offset" />
          </mxGeometry>
        </mxCell>
        <mxCell id="dNxyNK7c78bLwvsdeMH5-21" value="Team Gamma" style="swimlane;html=1;startSize=20;horizontal=0;" parent="dNxyNK7c78bLwvsdeMH5-19" vertex="1">
          <mxGeometry x="20" y="370" width="1230" height="280" as="geometry" />
        </mxCell>
        <mxCell id="JLahKmmvktKveG1mE4vH-32" value="Application Determine Owner Good" style="rounded=0;whiteSpace=wrap;html=1;fontFamily=Helvetica;fontSize=12;fontColor=#000000;align=left;verticalAlign=top;" parent="dNxyNK7c78bLwvsdeMH5-21" vertex="1">
          <mxGeometry x="480" y="30" width="260" height="90" as="geometry" />
        </mxCell>
        <mxCell id="JLahKmmvktKveG1mE4vH-33" value="Validate the data on car owner vs actual owner" style="shape=parallelogram;perimeter=parallelogramPerimeter;whiteSpace=wrap;html=1;fixedSize=1;fillColor=#60a917;fontColor=#ffffff;strokeColor=#2D7600;" parent="dNxyNK7c78bLwvsdeMH5-21" vertex="1">
          <mxGeometry x="492" y="55" width="158" height="60" as="geometry" />
        </mxCell>
        <mxCell id="JLahKmmvktKveG1mE4vH-36" value="Application Check Actual Transgressor" style="rounded=0;whiteSpace=wrap;html=1;fontFamily=Helvetica;fontSize=12;fontColor=#000000;align=left;verticalAlign=top;" parent="dNxyNK7c78bLwvsdeMH5-21" vertex="1">
          <mxGeometry x="840" y="30" width="260" height="90" as="geometry" />
        </mxCell>
        <mxCell id="JLahKmmvktKveG1mE4vH-44" style="edgeStyle=orthogonalEdgeStyle;rounded=0;orthogonalLoop=1;jettySize=auto;html=1;exitX=1;exitY=0.5;exitDx=0;exitDy=0;entryX=0;entryY=0.5;entryDx=0;entryDy=0;fillColor=#60a917;strokeColor=#2D7600;strokeWidth=4;" parent="dNxyNK7c78bLwvsdeMH5-21" source="JLahKmmvktKveG1mE4vH-37" target="JLahKmmvktKveG1mE4vH-43" edge="1">
          <mxGeometry relative="1" as="geometry" />
        </mxCell>
        <mxCell id="JLahKmmvktKveG1mE4vH-37" value="Validate the data on car driver" style="shape=parallelogram;perimeter=parallelogramPerimeter;whiteSpace=wrap;html=1;fixedSize=1;fillColor=#60a917;fontColor=#ffffff;strokeColor=#2D7600;" parent="dNxyNK7c78bLwvsdeMH5-21" vertex="1">
          <mxGeometry x="852" y="55" width="158" height="60" as="geometry" />
        </mxCell>
        <mxCell id="JLahKmmvktKveG1mE4vH-38" value="" style="rhombus;whiteSpace=wrap;html=1;fillColor=#d5e8d4;strokeColor=#82b366;" parent="dNxyNK7c78bLwvsdeMH5-21" vertex="1">
          <mxGeometry x="680" y="65" width="44" height="40" as="geometry" />
        </mxCell>
        <mxCell id="JLahKmmvktKveG1mE4vH-39" value="" style="endArrow=classic;html=1;rounded=0;entryX=0;entryY=0.5;entryDx=0;entryDy=0;exitX=1;exitY=0.5;exitDx=0;exitDy=0;fillColor=#60a917;strokeColor=#2D7600;strokeWidth=4;" parent="dNxyNK7c78bLwvsdeMH5-21" source="JLahKmmvktKveG1mE4vH-33" target="JLahKmmvktKveG1mE4vH-38" edge="1">
          <mxGeometry width="50" height="50" relative="1" as="geometry">
            <mxPoint x="460" y="100" as="sourcePoint" />
            <mxPoint x="510" y="50" as="targetPoint" />
          </mxGeometry>
        </mxCell>
        <mxCell id="JLahKmmvktKveG1mE4vH-41" value="Manual Actions" style="shape=umlActor;verticalLabelPosition=bottom;verticalAlign=top;html=1;outlineConnect=0;" parent="dNxyNK7c78bLwvsdeMH5-21" vertex="1">
          <mxGeometry x="552" y="150" width="30" height="60" as="geometry" />
        </mxCell>
        <mxCell id="JLahKmmvktKveG1mE4vH-43" value="" style="rhombus;whiteSpace=wrap;html=1;fillColor=#d5e8d4;strokeColor=#82b366;" parent="dNxyNK7c78bLwvsdeMH5-21" vertex="1">
          <mxGeometry x="1040" y="65" width="44" height="40" as="geometry" />
        </mxCell>
        <mxCell id="odWeHe8WMvh3HsmHUbko-4" value="&lt;b&gt;&lt;font color=&quot;#0008ff&quot; style=&quot;font-size: 15px;&quot;&gt;DOG&lt;/font&gt;&lt;/b&gt;" style="text;html=1;strokeColor=none;fillColor=none;align=center;verticalAlign=middle;whiteSpace=wrap;rounded=0;" parent="dNxyNK7c78bLwvsdeMH5-21" vertex="1">
          <mxGeometry x="466" y="6" width="60" height="30" as="geometry" />
        </mxCell>
        <mxCell id="odWeHe8WMvh3HsmHUbko-5" value="&lt;b&gt;&lt;font color=&quot;#0008ff&quot; style=&quot;font-size: 15px;&quot;&gt;CAT&lt;/font&gt;&lt;/b&gt;" style="text;html=1;strokeColor=none;fillColor=none;align=center;verticalAlign=middle;whiteSpace=wrap;rounded=0;" parent="dNxyNK7c78bLwvsdeMH5-21" vertex="1">
          <mxGeometry x="825" y="5" width="60" height="30" as="geometry" />
        </mxCell>
        <mxCell id="3Uh9chhcTV54EPIA5pE7-14" value="" style="shape=flexArrow;endArrow=classic;html=1;rounded=0;fillColor=#1ba1e2;strokeColor=#006EAF;labelBackgroundColor=none;endWidth=24;endSize=8;width=22;" edge="1" parent="dNxyNK7c78bLwvsdeMH5-21">
          <mxGeometry width="50" height="50" relative="1" as="geometry">
            <mxPoint x="1030" y="120" as="sourcePoint" />
            <mxPoint x="1030" y="170" as="targetPoint" />
          </mxGeometry>
        </mxCell>
        <mxCell id="3Uh9chhcTV54EPIA5pE7-15" value="&lt;font style=&quot;font-size: 23px;&quot;&gt;1&lt;/font&gt;" style="edgeLabel;html=1;align=center;verticalAlign=middle;resizable=0;points=[];labelBackgroundColor=none;fontColor=#FFFFFF;" vertex="1" connectable="0" parent="3Uh9chhcTV54EPIA5pE7-14">
          <mxGeometry x="-0.3714" y="-4" relative="1" as="geometry">
            <mxPoint x="4" y="8" as="offset" />
          </mxGeometry>
        </mxCell>
        <mxCell id="3Uh9chhcTV54EPIA5pE7-16" value="" style="shape=flexArrow;endArrow=classic;html=1;rounded=0;fillColor=#1ba1e2;strokeColor=#006EAF;labelBackgroundColor=none;endWidth=24;endSize=8;width=22;" edge="1" parent="dNxyNK7c78bLwvsdeMH5-21">
          <mxGeometry width="50" height="50" relative="1" as="geometry">
            <mxPoint x="1070" y="50" as="sourcePoint" />
            <mxPoint x="1120" y="50" as="targetPoint" />
          </mxGeometry>
        </mxCell>
        <mxCell id="3Uh9chhcTV54EPIA5pE7-17" value="&lt;font style=&quot;font-size: 23px;&quot;&gt;2&lt;/font&gt;" style="edgeLabel;html=1;align=center;verticalAlign=middle;resizable=0;points=[];labelBackgroundColor=none;fontColor=#FFFFFF;" vertex="1" connectable="0" parent="3Uh9chhcTV54EPIA5pE7-16">
          <mxGeometry x="-0.3714" y="-4" relative="1" as="geometry">
            <mxPoint x="7" y="-4" as="offset" />
          </mxGeometry>
        </mxCell>
        <mxCell id="3Uh9chhcTV54EPIA5pE7-21" value="" style="edgeStyle=orthogonalEdgeStyle;rounded=0;orthogonalLoop=1;jettySize=auto;html=1;entryX=0.35;entryY=1;entryDx=0;entryDy=0;entryPerimeter=0;" edge="1" parent="dNxyNK7c78bLwvsdeMH5-21" source="3Uh9chhcTV54EPIA5pE7-19" target="JLahKmmvktKveG1mE4vH-36">
          <mxGeometry relative="1" as="geometry" />
        </mxCell>
        <mxCell id="3Uh9chhcTV54EPIA5pE7-19" value="Manual Actions" style="shape=umlActor;verticalLabelPosition=bottom;verticalAlign=top;html=1;outlineConnect=0;" vertex="1" parent="dNxyNK7c78bLwvsdeMH5-21">
          <mxGeometry x="916" y="150" width="30" height="60" as="geometry" />
        </mxCell>
        <mxCell id="3Uh9chhcTV54EPIA5pE7-20" style="edgeStyle=orthogonalEdgeStyle;rounded=0;orthogonalLoop=1;jettySize=auto;html=1;exitX=0.5;exitY=0;exitDx=0;exitDy=0;exitPerimeter=0;entryX=0.335;entryY=1.044;entryDx=0;entryDy=0;entryPerimeter=0;" edge="1" parent="dNxyNK7c78bLwvsdeMH5-21" source="JLahKmmvktKveG1mE4vH-41" target="JLahKmmvktKveG1mE4vH-32">
          <mxGeometry relative="1" as="geometry" />
        </mxCell>
        <mxCell id="dNxyNK7c78bLwvsdeMH5-22" value="Team Alpha" style="swimlane;html=1;startSize=20;horizontal=0;" parent="dNxyNK7c78bLwvsdeMH5-19" vertex="1">
          <mxGeometry x="20" y="650" width="1230" height="285" as="geometry" />
        </mxCell>
        <mxCell id="JLahKmmvktKveG1mE4vH-13" value="Application Case Administration System" style="rounded=0;whiteSpace=wrap;html=1;fontFamily=Helvetica;fontSize=12;fontColor=#000000;align=left;verticalAlign=top;" parent="dNxyNK7c78bLwvsdeMH5-22" vertex="1">
          <mxGeometry x="428" y="100" width="692" height="90" as="geometry" />
        </mxCell>
        <mxCell id="JLahKmmvktKveG1mE4vH-14" value="Manual enrich &lt;br&gt;input car data" style="shape=parallelogram;perimeter=parallelogramPerimeter;whiteSpace=wrap;html=1;fixedSize=1;fillColor=#60a917;fontColor=#ffffff;strokeColor=#2D7600;" parent="dNxyNK7c78bLwvsdeMH5-22" vertex="1">
          <mxGeometry x="440" y="125" width="120" height="60" as="geometry" />
        </mxCell>
        <mxCell id="JLahKmmvktKveG1mE4vH-53" value="" style="edgeStyle=orthogonalEdgeStyle;rounded=0;orthogonalLoop=1;jettySize=auto;html=1;fillColor=#60a917;strokeColor=#2D7600;strokeWidth=4;" parent="dNxyNK7c78bLwvsdeMH5-22" source="JLahKmmvktKveG1mE4vH-48" target="JLahKmmvktKveG1mE4vH-51" edge="1">
          <mxGeometry relative="1" as="geometry" />
        </mxCell>
        <mxCell id="JLahKmmvktKveG1mE4vH-48" value="Manual enrich&lt;br&gt;driver data" style="shape=parallelogram;perimeter=parallelogramPerimeter;whiteSpace=wrap;html=1;fixedSize=1;fillColor=#60a917;fontColor=#ffffff;strokeColor=#2D7600;" parent="dNxyNK7c78bLwvsdeMH5-22" vertex="1">
          <mxGeometry x="870" y="125" width="120" height="60" as="geometry" />
        </mxCell>
        <mxCell id="JLahKmmvktKveG1mE4vH-51" value="" style="rhombus;whiteSpace=wrap;html=1;fillColor=#d5e8d4;strokeColor=#82b366;" parent="dNxyNK7c78bLwvsdeMH5-22" vertex="1">
          <mxGeometry x="1010" y="135" width="44" height="40" as="geometry" />
        </mxCell>
        <mxCell id="odWeHe8WMvh3HsmHUbko-6" value="&lt;b&gt;&lt;font color=&quot;#0008ff&quot; style=&quot;font-size: 15px;&quot;&gt;CAS&lt;/font&gt;&lt;/b&gt;" style="text;html=1;strokeColor=none;fillColor=none;align=center;verticalAlign=middle;whiteSpace=wrap;rounded=0;" parent="dNxyNK7c78bLwvsdeMH5-22" vertex="1">
          <mxGeometry x="413" y="74" width="60" height="30" as="geometry" />
        </mxCell>
        <mxCell id="3Uh9chhcTV54EPIA5pE7-23" value="" style="edgeStyle=orthogonalEdgeStyle;rounded=0;orthogonalLoop=1;jettySize=auto;html=1;entryX=0.416;entryY=1.022;entryDx=0;entryDy=0;entryPerimeter=0;" edge="1" parent="dNxyNK7c78bLwvsdeMH5-22" source="3Uh9chhcTV54EPIA5pE7-18" target="JLahKmmvktKveG1mE4vH-13">
          <mxGeometry relative="1" as="geometry" />
        </mxCell>
        <mxCell id="3Uh9chhcTV54EPIA5pE7-18" value="Manual Actions" style="shape=umlActor;verticalLabelPosition=bottom;verticalAlign=top;html=1;outlineConnect=0;" vertex="1" parent="dNxyNK7c78bLwvsdeMH5-22">
          <mxGeometry x="700" y="220" width="30" height="60" as="geometry" />
        </mxCell>
        <mxCell id="JLahKmmvktKveG1mE4vH-12" value="" style="endArrow=classic;html=1;rounded=0;exitX=1;exitY=1;exitDx=0;exitDy=0;entryX=0;entryY=0.5;entryDx=0;entryDy=0;strokeWidth=4;fillColor=#60a917;strokeColor=#2D7600;" parent="dNxyNK7c78bLwvsdeMH5-19" source="JLahKmmvktKveG1mE4vH-8" target="JLahKmmvktKveG1mE4vH-14" edge="1">
          <mxGeometry width="50" height="50" relative="1" as="geometry">
            <mxPoint x="437" y="390" as="sourcePoint" />
            <mxPoint x="470" y="365" as="targetPoint" />
            <Array as="points">
              <mxPoint x="430" y="805" />
            </Array>
          </mxGeometry>
        </mxCell>
        <mxCell id="JLahKmmvktKveG1mE4vH-17" value="invalid car data" style="edgeLabel;html=1;align=center;verticalAlign=middle;resizable=0;points=[];" parent="JLahKmmvktKveG1mE4vH-12" vertex="1" connectable="0">
          <mxGeometry x="-0.2553" y="-1" relative="1" as="geometry">
            <mxPoint as="offset" />
          </mxGeometry>
        </mxCell>
        <mxCell id="JLahKmmvktKveG1mE4vH-15" value="" style="endArrow=classic;html=1;rounded=0;exitX=1;exitY=0.5;exitDx=0;exitDy=0;entryX=0.25;entryY=1;entryDx=0;entryDy=0;strokeWidth=4;fillColor=#60a917;strokeColor=#2D7600;" parent="dNxyNK7c78bLwvsdeMH5-19" source="JLahKmmvktKveG1mE4vH-14" target="JLahKmmvktKveG1mE4vH-3" edge="1">
          <mxGeometry width="50" height="50" relative="1" as="geometry">
            <mxPoint x="380" y="555" as="sourcePoint" />
            <mxPoint x="290" y="410" as="targetPoint" />
            <Array as="points">
              <mxPoint x="590" y="805" />
              <mxPoint x="590" y="815" />
              <mxPoint x="590" y="870" />
              <mxPoint x="280" y="870" />
            </Array>
          </mxGeometry>
        </mxCell>
        <mxCell id="JLahKmmvktKveG1mE4vH-35" value="" style="edgeStyle=orthogonalEdgeStyle;rounded=0;orthogonalLoop=1;jettySize=auto;html=1;entryX=0;entryY=0.5;entryDx=0;entryDy=0;fillColor=#60a917;strokeColor=#2D7600;strokeWidth=4;" parent="dNxyNK7c78bLwvsdeMH5-19" source="JLahKmmvktKveG1mE4vH-23" target="JLahKmmvktKveG1mE4vH-33" edge="1">
          <mxGeometry relative="1" as="geometry">
            <Array as="points">
              <mxPoint x="672" y="140" />
              <mxPoint x="480" y="140" />
              <mxPoint x="480" y="455" />
            </Array>
          </mxGeometry>
        </mxCell>
        <mxCell id="JLahKmmvktKveG1mE4vH-45" style="edgeStyle=orthogonalEdgeStyle;rounded=0;orthogonalLoop=1;jettySize=auto;html=1;exitX=1;exitY=0.5;exitDx=0;exitDy=0;entryX=0;entryY=0.5;entryDx=0;entryDy=0;fillColor=#60a917;strokeColor=#2D7600;strokeWidth=4;" parent="dNxyNK7c78bLwvsdeMH5-19" source="JLahKmmvktKveG1mE4vH-43" target="JLahKmmvktKveG1mE4vH-65" edge="1">
          <mxGeometry relative="1" as="geometry">
            <mxPoint x="1170" y="455" as="targetPoint" />
            <Array as="points">
              <mxPoint x="1140" y="455" />
              <mxPoint x="1140" y="320" />
              <mxPoint x="890" y="320" />
              <mxPoint x="890" y="185" />
            </Array>
          </mxGeometry>
        </mxCell>
        <mxCell id="JLahKmmvktKveG1mE4vH-57" value="" style="edgeStyle=orthogonalEdgeStyle;rounded=0;orthogonalLoop=1;jettySize=auto;html=1;entryX=0;entryY=0.5;entryDx=0;entryDy=0;fillColor=#60a917;strokeColor=#2D7600;strokeWidth=4;" parent="dNxyNK7c78bLwvsdeMH5-19" source="JLahKmmvktKveG1mE4vH-43" target="JLahKmmvktKveG1mE4vH-48" edge="1">
          <mxGeometry relative="1" as="geometry">
            <mxPoint x="1082" y="575" as="targetPoint" />
            <Array as="points">
              <mxPoint x="1082" y="630" />
              <mxPoint x="860" y="630" />
              <mxPoint x="860" y="805" />
            </Array>
          </mxGeometry>
        </mxCell>
        <mxCell id="JLahKmmvktKveG1mE4vH-63" style="edgeStyle=orthogonalEdgeStyle;rounded=0;orthogonalLoop=1;jettySize=auto;html=1;entryX=0;entryY=0.5;entryDx=0;entryDy=0;fillColor=#60a917;strokeColor=#2D7600;strokeWidth=4;" parent="dNxyNK7c78bLwvsdeMH5-19" source="JLahKmmvktKveG1mE4vH-51" target="JLahKmmvktKveG1mE4vH-33" edge="1">
          <mxGeometry relative="1" as="geometry">
            <Array as="points">
              <mxPoint x="1160" y="805" />
              <mxPoint x="1160" y="640" />
              <mxPoint x="460" y="640" />
              <mxPoint x="460" y="455" />
            </Array>
          </mxGeometry>
        </mxCell>
        <mxCell id="JLahKmmvktKveG1mE4vH-40" value="" style="edgeStyle=orthogonalEdgeStyle;rounded=0;orthogonalLoop=1;jettySize=auto;html=1;entryX=0;entryY=0.5;entryDx=0;entryDy=0;fillColor=#60a917;strokeColor=#2D7600;strokeWidth=4;" parent="dNxyNK7c78bLwvsdeMH5-19" source="JLahKmmvktKveG1mE4vH-38" target="odWeHe8WMvh3HsmHUbko-1" edge="1">
          <mxGeometry relative="1" as="geometry">
            <Array as="points">
              <mxPoint x="722" y="320" />
              <mxPoint x="500" y="320" />
              <mxPoint x="500" y="185" />
            </Array>
          </mxGeometry>
        </mxCell>
        <mxCell id="odWeHe8WMvh3HsmHUbko-2" style="edgeStyle=orthogonalEdgeStyle;rounded=0;orthogonalLoop=1;jettySize=auto;html=1;exitX=1;exitY=0.5;exitDx=0;exitDy=0;entryX=0;entryY=0.5;entryDx=0;entryDy=0;fillColor=#60a917;strokeColor=#2D7600;strokeWidth=4;" parent="dNxyNK7c78bLwvsdeMH5-19" source="odWeHe8WMvh3HsmHUbko-1" target="JLahKmmvktKveG1mE4vH-37" edge="1">
          <mxGeometry relative="1" as="geometry">
            <Array as="points">
              <mxPoint x="840" y="185" />
              <mxPoint x="840" y="455" />
            </Array>
          </mxGeometry>
        </mxCell>
        <mxCell id="JLahKmmvktKveG1mE4vH-4" value="Car Licence Office" style="ellipse;shape=cloud;whiteSpace=wrap;html=1;fillColor=#d5e8d4;strokeColor=#82b366;" parent="1" vertex="1">
          <mxGeometry x="242" y="-20" width="160" height="80" as="geometry" />
        </mxCell>
        <mxCell id="JLahKmmvktKveG1mE4vH-5" value="" style="endArrow=classic;html=1;rounded=0;endFill=1;startArrow=classic;startFill=1;entryX=0.55;entryY=0.95;entryDx=0;entryDy=0;entryPerimeter=0;strokeWidth=4;fillColor=#60a917;strokeColor=#2D7600;" parent="1" source="JLahKmmvktKveG1mE4vH-3" target="JLahKmmvktKveG1mE4vH-4" edge="1">
          <mxGeometry width="50" height="50" relative="1" as="geometry">
            <mxPoint x="342" y="320" as="sourcePoint" />
            <mxPoint x="300" y="80" as="targetPoint" />
            <Array as="points" />
          </mxGeometry>
        </mxCell>
        <mxCell id="JLahKmmvktKveG1mE4vH-66" value="insurance experts execution" style="ellipse;shape=cloud;whiteSpace=wrap;html=1;fillColor=#d5e8d4;strokeColor=#82b366;" parent="1" vertex="1">
          <mxGeometry x="1330" y="261" width="120" height="80" as="geometry" />
        </mxCell>
        <mxCell id="JLahKmmvktKveG1mE4vH-67" style="edgeStyle=orthogonalEdgeStyle;rounded=0;orthogonalLoop=1;jettySize=auto;html=1;exitX=1;exitY=0.5;exitDx=0;exitDy=0;entryX=0.16;entryY=0.55;entryDx=0;entryDy=0;entryPerimeter=0;fillColor=#60a917;strokeColor=#2D7600;strokeWidth=4;" parent="1" source="JLahKmmvktKveG1mE4vH-65" target="JLahKmmvktKveG1mE4vH-66" edge="1">
          <mxGeometry relative="1" as="geometry" />
        </mxCell>
        <mxCell id="JLahKmmvktKveG1mE4vH-68" value="Transfer case to manual audit&amp;nbsp; &lt;br&gt;by experts in the field" style="edgeLabel;html=1;align=center;verticalAlign=middle;resizable=0;points=[];" parent="JLahKmmvktKveG1mE4vH-67" vertex="1" connectable="0">
          <mxGeometry x="0.1063" y="1" relative="1" as="geometry">
            <mxPoint as="offset" />
          </mxGeometry>
        </mxCell>
      </root>
    </mxGraphModel>
  </diagram>
</mxfile>
